# xmcd
#
# Track frame offsets:
#	182
#	10735
#	25730
#	36600
#	45520
#	54417
#	68035
#	78980
#	89760
#	101020
#	111232
#	123330
#	135760
#	147075
#	159060
#	175065
#	185952
#	199222
#	210547
#
# Disc length: 2965 seconds
#
# Revision: 8
# Processed by: cddbd v1.5.2PL0 Copyright (c) Steve Scherf et al.
# Submitted via: audiograbber 1.83.01
#
DISCID=000b9313
DTITLE=Various Artist - Senior Prom [Disc 2]
DYEAR=1987
DGENRE=Pop
TTITLE0=Tune Weavers - Happy, Happy Birthday Baby
TTITLE1=The Four Lads - Moments To Remember
TTITLE2=Fleetwoods - Mr. Blue
TTITLE3=The Fireflies - You Were Mine
TTITLE4=Connie Stevens - Sixteen Reasons
TTITLE5=Dickey Lee - Patches
TTITLE6=The Teddy Bears - To Know Him Is To Love Him
TTITLE7=Frank Wilson and The Cavaliers - Last Kiss
TTITLE8=Brook Benton - It's Just A Matter Of Time
TTITLE9=The Danleers - One Summer Night
TTITLE10=Connie Francis - Where The Boys Are
TTITLE11=The Diamonds - Silhouettes
TTITLE12=The Lettermen - When I Fall In Love
TTITLE13=Tommy Edwards - It's All In The Game
TTITLE14=Rosie and The Originals - Angel Baby
TTITLE15=Phil Phillips (with The Twilights) - Sea Of Love
TTITLE16=The Crests - Sixteen Candles
TTITLE17=The Angels - Til
TTITLE18=The Skyliners - Since I Don't Have You
EXTD=YEAR: 1987
EXTT0=
EXTT1=
EXTT2=
EXTT3=
EXTT4=
EXTT5=
EXTT6=
EXTT7=
EXTT8=
EXTT9=
EXTT10=
EXTT11=
EXTT12=
EXTT13=
EXTT14=
EXTT15=
EXTT16=
EXTT17=
EXTT18=
PLAYORDER=
